<svg xmlns="http://www.w3.org/2000/svg" viewBox="0 0 53.87 68.64"><defs><style>.cls-1{fill:none;}.cls-2{fill:#00bcd4;}</style></defs><g id="Layer_2" data-name="Layer 2"><g id="Layer_1-2" data-name="Layer 1"><rect class="cls-1" width="53.87" height="68.64"/><polygon class="cls-2" points="45.87 44.65 32.02 52.65 36.63 60.64 45.87 44.65"/><polygon class="cls-2" points="30.02 52.65 25.4 60.64 34.63 60.64 30.02 52.65"/><polygon class="cls-2" points="8 52.65 8 60.64 23.38 60.64 27.99 52.65 8 52.65"/><polygon class="cls-2" points="8 24 21.85 16 17.23 8 8 24"/><polygon class="cls-2" points="23.85 16 28.47 8 19.23 8 23.85 16"/><polygon class="cls-2" points="45.87 16 45.87 8 30.49 8 25.87 16 45.87 16"/><polygon class="cls-2" points="24 22.78 16 36.63 8 32.01 24 22.78"/><polygon class="cls-2" points="16 38.63 8 43.24 8 34.01 16 38.63"/><polygon class="cls-2" points="16 60.64 8 60.64 8 45.27 16 40.65 16 60.64"/><polygon class="cls-2" points="29.87 45.87 37.87 32.02 45.87 36.63 29.87 45.87"/><polygon class="cls-2" points="37.87 30.02 45.87 25.4 45.87 34.63 37.87 30.02"/><polygon class="cls-2" points="37.87 8 45.87 8 45.87 23.38 37.87 27.99 37.87 8"/></g></g></svg>