<svg width="72" height="72" viewBox="0 0 72 72" fill="none" xmlns="http://www.w3.org/2000/svg">
<path d="M28.125 15.75H11.25C10.0565 15.75 8.91193 16.2241 8.06802 17.068C7.22411 17.9119 6.75 19.0565 6.75 20.25V38.25C6.75 39.4435 7.22411 40.5881 8.06802 41.432C8.91193 42.2759 10.0565 42.75 11.25 42.75H28.125V45C28.1176 47.3847 27.167 49.6695 25.4808 51.3558C23.7945 53.042 21.5097 53.9926 19.125 54C18.5283 54 17.956 54.2371 17.534 54.659C17.1121 55.081 16.875 55.6533 16.875 56.25C16.875 56.8467 17.1121 57.419 17.534 57.841C17.956 58.2629 18.5283 58.5 19.125 58.5C22.7054 58.5 26.1392 57.0777 28.6709 54.5459C31.2027 52.0142 32.625 48.5804 32.625 45V20.25C32.625 19.0565 32.1509 17.9119 31.307 17.068C30.4631 16.2241 29.3185 15.75 28.125 15.75V15.75ZM28.125 38.25H11.25V20.25H28.125V38.25ZM60.75 15.75H43.875C42.6815 15.75 41.5369 16.2241 40.693 17.068C39.8491 17.9119 39.375 19.0565 39.375 20.25V38.25C39.375 39.4435 39.8491 40.5881 40.693 41.432C41.5369 42.2759 42.6815 42.75 43.875 42.75H60.75V45C60.7426 47.3847 59.792 49.6695 58.1058 51.3558C56.4195 53.042 54.1347 53.9926 51.75 54C51.1533 54 50.581 54.2371 50.159 54.659C49.7371 55.081 49.5 55.6533 49.5 56.25C49.5 56.8467 49.7371 57.419 50.159 57.841C50.581 58.2629 51.1533 58.5 51.75 58.5C55.3304 58.5 58.7642 57.0777 61.2959 54.5459C63.8277 52.0142 65.25 48.5804 65.25 45V20.25C65.25 19.0565 64.7759 17.9119 63.932 17.068C63.0881 16.2241 61.9435 15.75 60.75 15.75V15.75ZM60.75 38.25H43.875V20.25H60.75V38.25Z" fill="#0EA5E9"/>
</svg>
