<svg width="36" height="36" viewBox="0 0 36 36" fill="none" xmlns="http://www.w3.org/2000/svg">
<g clip-path="url(#clip0_12_90)">
<path d="M35.6063 0.270034C35.7909 0.427674 35.9197 0.640832 35.9732 0.877665C36.0267 1.1145 36.0022 1.36229 35.9033 1.58403C32.4608 9.30153 25.2315 19.9665 19.9395 25.524C18.4562 27.0787 16.6269 28.2613 14.6003 28.9755C14.5598 29.4863 14.4653 30.186 14.2403 30.9285C13.788 32.4113 12.7395 34.2563 10.3973 34.8435C8.12888 35.3837 5.77806 35.4845 3.47176 35.1405C3.04291 35.0728 2.6201 34.9712 2.20726 34.8368C1.82533 34.7206 1.46935 34.5319 1.15876 34.281C0.953949 34.1068 0.796127 33.884 0.699764 33.633C0.58033 33.3109 0.583533 32.9562 0.708764 32.6363C0.922514 32.085 1.41976 31.7813 1.74601 31.6193C2.63251 31.176 3.15226 30.6 3.69676 29.7608C3.91051 29.4368 4.11076 29.0925 4.34251 28.6988L4.60576 28.2533C4.94551 27.6795 5.33926 27.0383 5.83426 26.3453C7.02226 24.6825 8.53651 24.264 9.76276 24.3293C10.0463 24.345 10.3095 24.3855 10.5458 24.4373C10.6853 24.0503 10.8653 23.5823 11.0813 23.0693C11.6685 21.6765 12.5618 19.8765 13.752 18.414C18.648 12.4065 27.657 4.45053 34.2653 0.180034C34.4687 0.0487231 34.7091 -0.0134444 34.9507 0.00277011C35.1923 0.0189846 35.4222 0.112716 35.6063 0.270034ZM10.5863 26.802C10.2877 26.6722 9.96855 26.596 9.64351 26.577C9.09001 26.5478 8.35426 26.6895 7.66576 27.6548C7.22251 28.2735 6.86701 28.8518 6.54076 29.403L6.30451 29.8013C6.06601 30.2085 5.82526 30.6158 5.58451 30.9893C5.12884 31.7276 4.55054 32.3827 3.87451 32.9265C5.42701 33.1785 7.78051 33.1763 9.85277 32.6565C11.1105 32.3438 11.7495 31.3763 12.087 30.2715C12.2499 29.7227 12.3451 29.156 12.3705 28.584L10.5863 26.802ZM13.8263 26.8605C14.0963 26.7705 14.4495 26.6355 14.8568 26.4488C16.1529 25.8475 17.3245 25.0079 18.3105 23.9738C22.5855 19.4828 28.2375 11.4413 31.9275 4.55403C26.1 8.88978 19.404 15.039 15.498 19.836C14.5035 21.0578 13.7093 22.6328 13.1535 23.9445C12.8813 24.5925 12.672 25.1595 12.5348 25.5645V25.5668L13.8285 26.8605H13.8263ZM2.63701 33.7005L2.65276 33.6893C2.64793 33.693 2.64263 33.696 2.63701 33.6983V33.7005ZM10.6965 26.8538L10.701 26.856H10.6965V26.8538Z" fill="#0EA5E9"/>
</g>
<defs>
<clipPath id="clip0_12_90">
<rect width="36" height="36" fill="white"/>
</clipPath>
</defs>
</svg>
