<svg width="36" height="36" viewBox="0 0 36 36" fill="none" xmlns="http://www.w3.org/2000/svg">
<path d="M31.5 2.25C32.0967 2.25 32.669 2.48705 33.091 2.90901C33.5129 3.33097 33.75 3.90326 33.75 4.5V31.5C33.75 32.0967 33.5129 32.669 33.091 33.091C32.669 33.5129 32.0967 33.75 31.5 33.75H4.5C3.90326 33.75 3.33097 33.5129 2.90901 33.091C2.48705 32.669 2.25 32.0967 2.25 31.5V4.5C2.25 3.90326 2.48705 3.33097 2.90901 2.90901C3.33097 2.48705 3.90326 2.25 4.5 2.25H31.5ZM4.5 0C3.30653 0 2.16193 0.474106 1.31802 1.31802C0.474106 2.16193 0 3.30653 0 4.5L0 31.5C0 32.6935 0.474106 33.8381 1.31802 34.682C2.16193 35.5259 3.30653 36 4.5 36H31.5C32.6935 36 33.8381 35.5259 34.682 34.682C35.5259 33.8381 36 32.6935 36 31.5V4.5C36 3.30653 35.5259 2.16193 34.682 1.31802C33.8381 0.474106 32.6935 0 31.5 0L4.5 0Z" fill="#0EA5E9"/>
<path d="M15.4215 10.4536C15.5263 10.5581 15.6094 10.6822 15.6661 10.8189C15.7228 10.9556 15.752 11.1021 15.752 11.2501C15.752 11.398 15.7228 11.5446 15.6661 11.6812C15.6094 11.8179 15.5263 11.9421 15.4215 12.0466L9.46575 18.0001L15.4215 23.9536C15.6327 24.1648 15.7514 24.4513 15.7514 24.7501C15.7514 25.0488 15.6327 25.3353 15.4215 25.5466C15.2103 25.7578 14.9237 25.8765 14.625 25.8765C14.3263 25.8765 14.0397 25.7578 13.8285 25.5466L7.0785 18.7966C6.97373 18.6921 6.89061 18.5679 6.83389 18.4312C6.77718 18.2946 6.74799 18.148 6.74799 18.0001C6.74799 17.8521 6.77718 17.7056 6.83389 17.5689C6.89061 17.4322 6.97373 17.3081 7.0785 17.2036L13.8285 10.4536C13.933 10.3488 14.0571 10.2657 14.1938 10.209C14.3305 10.1522 14.477 10.123 14.625 10.123C14.773 10.123 14.9195 10.1522 15.0562 10.209C15.1928 10.2657 15.317 10.3488 15.4215 10.4536ZM20.5785 10.4536C20.4737 10.5581 20.3906 10.6822 20.3339 10.8189C20.2772 10.9556 20.248 11.1021 20.248 11.2501C20.248 11.398 20.2772 11.5446 20.3339 11.6812C20.3906 11.8179 20.4737 11.9421 20.5785 12.0466L26.5342 18.0001L20.5785 23.9536C20.3673 24.1648 20.2486 24.4513 20.2486 24.7501C20.2486 25.0488 20.3673 25.3353 20.5785 25.5466C20.7897 25.7578 21.0763 25.8765 21.375 25.8765C21.6737 25.8765 21.9603 25.7578 22.1715 25.5466L28.9215 18.7966C29.0263 18.6921 29.1094 18.5679 29.1661 18.4312C29.2228 18.2946 29.252 18.148 29.252 18.0001C29.252 17.8521 29.2228 17.7056 29.1661 17.5689C29.1094 17.4322 29.0263 17.3081 28.9215 17.2036L22.1715 10.4536C22.067 10.3488 21.9428 10.2657 21.8062 10.209C21.6695 10.1522 21.523 10.123 21.375 10.123C21.227 10.123 21.0805 10.1522 20.9438 10.209C20.8071 10.2657 20.683 10.3488 20.5785 10.4536Z" fill="#0EA5E9"/>
</svg>
